<?xml version="1.0" standalone="no"?>
<!DOCTYPE svg PUBLIC "-//W3C//DTD SVG 20010904//EN"
 "http://www.w3.org/TR/2001/REC-SVG-20010904/DTD/svg10.dtd">
<svg version="1.0" xmlns="http://www.w3.org/2000/svg"
 width="732.000000pt" height="343.000000pt" viewBox="0 0 732.000000 343.000000"
 preserveAspectRatio="xMidYMid meet">

<g transform="translate(0.000000,343.000000) scale(0.100000,-0.100000)"
fill="#000000" stroke="none">
<path d="M3636 3363 c-49 -158 -213 -519 -466 -1024 l-178 -356 68 -22 c182
-58 298 -196 360 -426 59 -223 23 -429 -97 -549 -69 -69 -103 -81 -228 -81
-107 0 -112 1 -185 38 -135 67 -285 187 -526 420 l-123 118 25 36 c23 34 44
92 44 123 0 68 -57 151 -125 181 -168 77 -359 -101 -289 -269 32 -77 94 -121
177 -127 l52 -3 22 -82 c40 -146 55 -269 52 -403 -4 -133 -13 -160 -66 -194
-45 -30 -158 -23 -273 16 -206 70 -293 126 -686 439 -425 339 -695 546 -969
744 -110 79 -206 148 -213 152 -6 4 62 -104 152 -241 307 -466 700 -1094 1007
-1610 l144 -243 2345 0 2345 1 99 167 c307 517 729 1194 1033 1656 129 195
176 274 157 261 -172 -113 -742 -546 -1209 -920 -304 -243 -327 -259 -460
-325 -77 -38 -174 -79 -215 -92 -94 -28 -204 -31 -243 -5 -53 34 -62 61 -66
194 -3 134 13 257 53 404 20 75 25 84 44 81 13 -2 46 4 76 12 92 27 154 118
143 212 -20 180 -250 258 -370 125 -66 -73 -71 -148 -19 -244 l27 -50 -135
-130 c-234 -224 -415 -365 -534 -417 -103 -44 -230 -44 -316 0 -37 19 -106 87
-132 130 -8 14 -25 52 -38 85 -34 86 -34 263 -1 385 63 235 178 372 361 431
l68 22 -185 369 c-265 531 -439 916 -469 1041 -3 15 -9 27 -13 27 -4 0 -15
-26 -25 -57z"/>
</g>
</svg>
